# xmcd
#
# Track frame offsets: 
#        150
#        9330
#        28735
#        44319
#        59383
#        74054
#        90502
#        105319
#        120209
#        135741
#        149797
#        165076
#        177744
#        194629
#        208759
#        230896
#        237191
#        253892
#        261311
#        270367
#        272674
#        290782
#        297862
#        304672
#
# Disc length: 4141 seconds
#
# Revision: 0
# Processed by: cddbd v1.5.2PL0 Copyright (c) Steve Scherf et al.
# Submitted via: ExactAudioCopy v0.99pb5
#
DISCID=73102b18
DTITLE=братский хор Задонского Рождество-Богородицкого мужского монаст
DTITLE=ыря - Молебен с акафистом святителю Тихону Задонскому
DYEAR=2009
DGENRE=New Age
TTITLE0=01 Царю Небесный... 
TTITLE1=02 Тропарь, глас 8
TTITLE2=03 Кондак 1, Икос 1 
TTITLE3=04 Кондак 2, Икос 2
TTITLE4=05 Кондак 3, Икос 3
TTITLE5=06 Кондак 4, Икос 4
TTITLE6=07 Кондак 5, Икос 5
TTITLE7=08 Кондак 6, Икос 6 
TTITLE8=09 Кондак 7, Икос 7
TTITLE9=10 Кондак 8, Икос 8
TTITLE10=11 Кондак 9, Икос 9
TTITLE11=12 Кондак 10, Икос 10 
TTITLE12=13 Кондак 11, Икос 11 
TTITLE13=14 Кондак 12, Кондак 12 
TTITLE14=15 Кондак 13 
TTITLE15=16 Кондак 1
TTITLE16=17 Прокимен, глас 4
TTITLE17=18 Чтение Евангелия от Иоанна 
TTITLE18=19 Запевы
TTITLE19=20 Кондак, глас 8 
TTITLE20=21 Сугубая ектения 
TTITLE21=22 Молитва святителю Тихону 
TTITLE22=23 Отпуст
TTITLE23=24 Величание святителю Тихону 
EXTD=
EXTT0=
EXTT1=
EXTT2=
EXTT3=
EXTT4=
EXTT5=
EXTT6=
EXTT7=
EXTT8=
EXTT9=
EXTT10=
EXTT11=
EXTT12=
EXTT13=
EXTT14=
EXTT15=
EXTT16=
EXTT17=
EXTT18=
EXTT19=
EXTT20=
EXTT21=
EXTT22=
EXTT23=
PLAYORDER=
